<?xml version="1.0" encoding="UTF-8"?>
<!DOCTYPE svg PUBLIC "-//W3C//DTD SVG 1.1//EN" "http://www.w3.org/Graphics/SVG/1.1/DTD/svg11.dtd">
<svg xmlns="http://www.w3.org/2000/svg" version="1.1" width="512px" height="512px" style="shape-rendering:geometricPrecision; text-rendering:geometricPrecision; image-rendering:optimizeQuality; fill-rule:evenodd; clip-rule:evenodd" xmlns:xlink="http://www.w3.org/1999/xlink">
<g><path style="opacity:0.972" fill="#f7ca17" d="M 359.5,54.5 C 360.167,56.5 361.5,57.8333 363.5,58.5C 365.167,58.5 366.833,58.5 368.5,58.5C 368.5,59.8333 368.5,61.1667 368.5,62.5C 370.553,62.4021 372.22,63.0687 373.5,64.5C 374.167,65.8333 375.167,66.8333 376.5,67.5C 380.018,68.9763 383.351,70.643 386.5,72.5C 386.5,74.1667 386.5,75.8333 386.5,77.5C 388.167,77.5 389.833,77.5 391.5,77.5C 391.5,78.8333 391.5,80.1667 391.5,81.5C 392.833,81.5 394.167,81.5 395.5,81.5C 395.5,83.1667 395.5,84.8333 395.5,86.5C 397.167,86.5 398.833,86.5 400.5,86.5C 400.5,88.1667 400.5,89.8333 400.5,91.5C 401.833,91.5 403.167,91.5 404.5,91.5C 404.5,92.8333 404.5,94.1667 404.5,95.5C 408.5,94.8333 410.167,96.5 409.5,100.5C 410.833,100.5 412.167,100.5 413.5,100.5C 413.183,104.172 414.849,105.838 418.5,105.5C 418.5,107.167 418.5,108.833 418.5,110.5C 419.822,110.33 420.989,110.663 422,111.5C 422.822,114.117 423.322,116.784 423.5,119.5C 424.833,119.5 426.167,119.5 427.5,119.5C 427.5,121.167 427.5,122.833 427.5,124.5C 428.833,124.5 430.167,124.5 431.5,124.5C 431.963,127.482 432.296,130.482 432.5,133.5C 433.833,133.5 435.167,133.5 436.5,133.5C 435.443,138.116 436.943,141.449 441,143.5C 441.498,146.482 441.665,149.482 441.5,152.5C 442.833,152.5 444.167,152.5 445.5,152.5C 445.5,155.5 445.5,158.5 445.5,161.5C 447.39,161.297 448.89,161.963 450,163.5C 450.499,167.486 450.666,171.486 450.5,175.5C 451.822,175.33 452.989,175.663 454,176.5C 454.499,180.821 454.666,185.154 454.5,189.5C 455.93,189.421 457.264,189.754 458.5,190.5C 459.33,196.472 459.83,202.472 460,208.5C 461,209.167 462,209.833 463,210.5C 463.667,238.5 463.667,266.5 463,294.5C 462.333,295.833 461.333,296.833 460,297.5C 459.667,303.5 459.333,309.5 459,315.5C 457.644,316.38 456.144,316.714 454.5,316.5C 454.5,321.167 454.5,325.833 454.5,330.5C 453.167,330.5 451.833,330.5 450.5,330.5C 450.666,334.846 450.499,339.179 450,343.5C 448.644,344.38 447.144,344.714 445.5,344.5C 445.665,347.85 445.498,351.183 445,354.5C 442.462,357.332 440.795,360.666 440,364.5C 437.198,366.391 436.032,369.058 436.5,372.5C 435.167,372.5 433.833,372.5 432.5,372.5C 432.296,375.518 431.963,378.518 431.5,381.5C 428.09,381.384 426.756,383.05 427.5,386.5C 426.167,386.5 424.833,386.5 423.5,386.5C 423.579,389.271 423.079,391.937 422,394.5C 420.989,395.337 419.822,395.67 418.5,395.5C 418.5,397.167 418.5,398.833 418.5,400.5C 414.849,400.162 413.183,401.828 413.5,405.5C 412.167,405.5 410.833,405.5 409.5,405.5C 409.5,407.167 409.5,408.833 409.5,410.5C 407.833,410.5 406.167,410.5 404.5,410.5C 404.5,412.167 404.5,413.833 404.5,415.5C 403.167,415.5 401.833,415.5 400.5,415.5C 400.5,416.833 400.5,418.167 400.5,419.5C 398.833,419.5 397.167,419.5 395.5,419.5C 395.5,421.167 395.5,422.833 395.5,424.5C 394.167,424.5 392.833,424.5 391.5,424.5C 392.167,428.5 390.5,430.167 386.5,429.5C 386.5,430.833 386.5,432.167 386.5,433.5C 385.167,433.5 383.833,433.5 382.5,433.5C 382.714,435.144 382.38,436.644 381.5,438C 378.467,439.045 375.8,440.712 373.5,443C 371.866,443.494 370.199,443.66 368.5,443.5C 368.5,444.833 368.5,446.167 368.5,447.5C 365.23,447.302 363.23,448.802 362.5,452C 360.1,452.186 357.766,452.686 355.5,453.5C 354.754,454.736 354.421,456.07 354.5,457.5C 349.913,456.622 346.58,458.122 344.5,462C 341.854,462.497 339.187,462.664 336.5,462.5C 336.5,463.833 336.5,465.167 336.5,466.5C 333.5,466.5 330.5,466.5 327.5,466.5C 327.714,468.144 327.38,469.644 326.5,471C 323.167,471.333 319.833,471.667 316.5,472C 315.386,473.57 314.053,474.903 312.5,476C 308.514,476.499 304.514,476.666 300.5,476.5C 300.67,477.822 300.337,478.989 299.5,480C 293.509,480.499 287.509,480.666 281.5,480.5C 279.833,481.5 278.5,482.833 277.5,484.5C 255.239,485.655 232.906,485.822 210.5,485C 207.553,484.888 206.22,483.388 206.5,480.5C 200.132,480.83 193.798,480.496 187.5,479.5C 187.023,478.522 186.357,477.689 185.5,477C 181.137,476.71 176.804,476.21 172.5,475.5C 170.833,475.167 169.833,474.167 169.5,472.5C 166.893,471.682 164.226,471.182 161.5,471C 160.62,469.644 160.286,468.144 160.5,466.5C 156.818,466.665 153.152,466.499 149.5,466C 146.984,462.857 143.651,461.19 139.5,461C 138.663,459.989 138.33,458.822 138.5,457.5C 136.833,457.5 135.167,457.5 133.5,457.5C 133.5,455.833 133.5,454.167 133.5,452.5C 130.5,452.5 127.5,452.5 124.5,452.5C 124.5,451.167 124.5,449.833 124.5,448.5C 122.447,448.598 120.78,447.931 119.5,446.5C 118.833,445.167 117.833,444.167 116.5,443.5C 112.44,444.152 110.44,442.485 110.5,438.5C 109.167,438.5 107.833,438.5 106.5,438.5C 106.5,436.833 106.5,435.167 106.5,433.5C 104.833,433.5 103.167,433.5 101.5,433.5C 101.5,432.167 101.5,430.833 101.5,429.5C 100.127,429.657 98.7932,429.49 97.5,429C 95.9499,425.554 93.2832,423.554 89.5,423C 88.6634,421.989 88.33,420.822 88.5,419.5C 87.448,419.649 86.448,419.483 85.5,419C 84.6356,416.438 82.9689,414.605 80.5,413.5C 79.5771,411.076 78.0771,409.076 76,407.5C 74.872,405.655 74.372,403.655 74.5,401.5C 70.8284,401.817 69.1617,400.151 69.5,396.5C 68.1667,396.5 66.8333,396.5 65.5,396.5C 65.5,394.833 65.5,393.167 65.5,391.5C 64.0222,391.762 62.6888,391.429 61.5,390.5C 60.6072,387.916 60.2739,385.249 60.5,382.5C 59.1667,382.5 57.8333,382.5 56.5,382.5C 56.5,380.833 56.5,379.167 56.5,377.5C 55.0222,377.762 53.6888,377.429 52.5,376.5C 51.6072,373.916 51.2739,371.249 51.5,368.5C 50.1779,368.67 49.0113,368.337 48,367.5C 47.5045,365.527 47.3379,363.527 47.5,361.5C 47.5,360.5 47.5,359.5 47.5,358.5C 46.5,358.5 45.5,358.5 44.5,358.5C 42.6122,356.012 41.9455,353.012 42.5,349.5C 41.1667,349.5 39.8333,349.5 38.5,349.5C 38.5,346.167 38.5,342.833 38.5,339.5C 36.8561,339.714 35.3561,339.38 34,338.5C 33.501,334.179 33.3343,329.846 33.5,325.5C 32.1667,325.5 30.8333,325.5 29.5,325.5C 29.4599,320.807 29.1266,316.141 28.5,311.5C 26.8762,311.64 25.7096,310.973 25,309.5C 24.5003,302.174 24.3337,294.841 24.5,287.5C 23.1779,287.67 22.0113,287.337 21,286.5C 19.0332,263.835 19.0332,241.169 21,218.5C 22,217.5 23,216.5 24,215.5C 24.4995,209.509 24.6662,203.509 24.5,197.5C 26.5,197.5 27.5,196.5 27.5,194.5C 28.7895,189.887 29.7895,185.22 30.5,180.5C 32.2624,179.738 33.2624,178.404 33.5,176.5C 33.3354,173.482 33.502,170.482 34,167.5C 35.3561,166.62 36.8561,166.286 38.5,166.5C 38.1872,162.958 38.5206,159.625 39.5,156.5C 40.8333,155.833 41.8333,154.833 42.5,153.5C 42.5,151.833 42.5,150.167 42.5,148.5C 43.2389,148.631 43.9056,148.464 44.5,148C 45.748,146.6 46.748,145.1 47.5,143.5C 47.5,141.833 47.5,140.167 47.5,138.5C 48.8333,138.5 50.1667,138.5 51.5,138.5C 51.3359,135.813 51.5026,133.146 52,130.5C 53.0852,129.707 54.2519,129.04 55.5,128.5C 57.4587,124.047 59.6254,119.714 62,115.5C 63.0113,114.663 64.1779,114.33 65.5,114.5C 65.5,113.167 65.5,111.833 65.5,110.5C 68.766,110.567 70.266,108.901 70,105.5C 74.033,99.837 78.6997,94.837 84,90.5C 84.4828,89.552 84.6495,88.552 84.5,87.5C 85.552,87.6495 86.552,87.4828 87.5,87C 90.2207,83.7892 93.2207,80.7892 96.5,78C 98.1341,77.5065 99.8008,77.3398 101.5,77.5C 101.5,75.8333 101.5,74.1667 101.5,72.5C 103.167,72.5 104.833,72.5 106.5,72.5C 106.5,70.8333 106.5,69.1667 106.5,67.5C 107.833,67.5 109.167,67.5 110.5,67.5C 110.33,66.1779 110.663,65.0113 111.5,64C 114.117,63.1785 116.784,62.6785 119.5,62.5C 119.5,61.1667 119.5,59.8333 119.5,58.5C 121.167,58.5 122.833,58.5 124.5,58.5C 124.286,56.8561 124.62,55.3561 125.5,54C 128.146,53.5026 130.813,53.3359 133.5,53.5C 133.238,52.0222 133.571,50.6888 134.5,49.5C 137.084,48.6072 139.751,48.2739 142.5,48.5C 142.5,47.1667 142.5,45.8333 142.5,44.5C 145.5,44.5 148.5,44.5 151.5,44.5C 151.5,42.8333 151.5,41.1667 151.5,39.5C 154.5,39.5 157.5,39.5 160.5,39.5C 160.137,37.0885 161.137,35.5885 163.5,35C 167.152,34.5014 170.818,34.3347 174.5,34.5C 174.5,33.1667 174.5,31.8333 174.5,30.5C 180.5,30.5 186.5,30.5 192.5,30.5C 192.5,28.8333 192.5,27.1667 192.5,25.5C 199.841,25.6663 207.174,25.4997 214.5,25C 215.061,23.324 216.061,21.9906 217.5,21C 235.858,20.2196 254.191,20.3863 272.5,21.5C 272.33,22.8221 272.663,23.9887 273.5,25C 280.826,25.4997 288.159,25.6663 295.5,25.5C 295.421,26.9305 295.754,28.2638 296.5,29.5C 301.802,30.3295 307.136,30.8295 312.5,31C 313.337,32.0113 313.67,33.1779 313.5,34.5C 316.518,34.3354 319.518,34.502 322.5,35C 323.257,36.5122 324.257,37.8455 325.5,39C 328.833,39.3333 332.167,39.6667 335.5,40C 336.38,41.3561 336.714,42.8561 336.5,44.5C 339.5,44.5 342.5,44.5 345.5,44.5C 345.5,45.8333 345.5,47.1667 345.5,48.5C 348.545,48.5079 351.545,48.8413 354.5,49.5C 354.351,50.552 354.517,51.552 355,52.5C 356.622,53.0989 358.122,53.7656 359.5,54.5 Z M 272.5,44.5 C 277.544,44.1725 282.544,44.5059 287.5,45.5C 287.977,46.4776 288.643,47.3109 289.5,48C 284.177,48.4994 278.844,48.666 273.5,48.5C 273.567,47.0413 273.234,45.7079 272.5,44.5 Z M 256.5,39.5 C 258.584,42.7058 261.584,44.0391 265.5,43.5C 268.059,43.1984 270.393,43.5318 272.5,44.5C 253.164,44.3334 233.83,44.5 214.5,45C 209.061,48.3308 203.061,49.3308 196.5,48C 198.291,47.5848 199.624,46.5848 200.5,45C 209.167,44.3333 217.833,43.6667 226.5,43C 228.116,42.3848 229.449,41.3848 230.5,40C 239.16,39.5002 247.827,39.3336 256.5,39.5 Z M 182.5,53.5 C 181.761,53.631 181.094,53.4643 180.5,53C 181.973,52.2904 182.64,51.1238 182.5,49.5C 186.311,48.3547 190.311,48.1881 194.5,49C 191.771,49.0047 189.771,50.1713 188.5,52.5C 186.604,53.4656 184.604,53.7989 182.5,53.5 Z M 291.5,49.5 C 295.97,48.5139 300.637,48.1805 305.5,48.5C 305.286,50.1439 305.62,51.6439 306.5,53C 304.833,53.1667 303.167,53.3333 301.5,53.5C 297.844,52.7162 294.511,51.3828 291.5,49.5 Z M 177.5,53.5 C 177.938,53.4346 178.272,53.6012 178.5,54C 175.928,54.4315 174.594,55.9315 174.5,58.5C 171.5,58.5 168.5,58.5 165.5,58.5C 168.259,58.0667 169.592,56.4 169.5,53.5C 172.167,53.5 174.833,53.5 177.5,53.5 Z M 312.5,58.5 C 311.833,57.1667 310.833,56.1667 309.5,55.5C 309.389,54.8826 309.056,54.3826 308.5,54C 310.833,53.3333 313.167,53.3333 315.5,54C 316.579,56.043 318.246,57.3763 320.5,58C 317.854,58.4974 315.187,58.6641 312.5,58.5 Z M 165.5,58.5 C 165.5,59.8333 165.5,61.1667 165.5,62.5C 162.393,62.3512 159.393,62.8512 156.5,64C 155.663,65.0113 155.33,66.1779 155.5,67.5C 153.143,67.6633 150.81,67.4966 148.5,67C 150.107,65.951 150.773,64.451 150.5,62.5C 153.187,62.6641 155.854,62.4974 158.5,62C 159.337,60.9887 159.67,59.8221 159.5,58.5C 161.5,58.5 163.5,58.5 165.5,58.5 Z M 321.5,59.5 C 323.607,58.5318 325.941,58.1984 328.5,58.5C 328.5,59.8333 328.5,61.1667 328.5,62.5C 331.5,62.5 334.5,62.5 337.5,62.5C 337.286,64.1439 337.62,65.6439 338.5,67C 336.527,67.4955 334.527,67.6621 332.5,67.5C 332.67,66.1779 332.337,65.0113 331.5,64C 327.516,63.6889 324.183,62.1889 321.5,59.5 Z M 138.5,72.5 C 139.209,71.596 140.209,71.2627 141.5,71.5C 141.5,70.1667 141.5,68.8333 141.5,67.5C 143.604,67.2011 145.604,67.5344 147.5,68.5C 146.754,69.7362 146.421,71.0695 146.5,72.5C 143.833,72.5 141.167,72.5 138.5,72.5 Z M 339.5,68.5 C 341.607,67.5318 343.941,67.1984 346.5,67.5C 346.238,68.9778 346.571,70.3112 347.5,71.5C 350.531,72.3665 353.197,73.8665 355.5,76C 356.793,76.49 358.127,76.6567 359.5,76.5C 359.239,80.0442 360.905,81.8775 364.5,82C 366.378,85.6059 369.378,87.1059 373.5,86.5C 373.238,87.9778 373.571,89.3112 374.5,90.5C 376.5,91.1667 377.833,92.5 378.5,94.5C 379.689,95.4287 381.022,95.762 382.5,95.5C 381.79,98.8595 383.124,100.693 386.5,101C 386.793,104.094 388.459,105.594 391.5,105.5C 391.5,106.833 391.5,108.167 391.5,109.5C 393.167,109.5 394.833,109.5 396.5,109.5C 396.5,111.167 396.5,112.833 396.5,114.5C 397.833,114.5 399.167,114.5 400.5,114.5C 399.833,118.5 401.5,120.167 405.5,119.5C 405.187,122.247 405.52,124.914 406.5,127.5C 408.677,128.676 410.011,130.51 410.5,133C 411.793,133.49 413.127,133.657 414.5,133.5C 414.187,136.247 414.52,138.914 415.5,141.5C 416.167,141.833 416.833,142.167 417.5,142.5C 419.9,147.205 422.233,151.871 424.5,156.5C 425.478,156.977 426.311,157.643 427,158.5C 427.297,161.914 427.964,165.247 429,168.5C 430,169.167 431,169.833 432,170.5C 432.333,173.167 432.667,175.833 433,178.5C 434,179.167 435,179.833 436,180.5C 436.318,184.195 436.818,187.862 437.5,191.5C 437.833,193.167 438.833,194.167 440.5,194.5C 441.663,199.802 441.829,205.136 441,210.5C 439.903,208.947 438.57,207.614 437,206.5C 436.667,201.167 436.333,195.833 436,190.5C 435,189.5 434,188.5 433,187.5C 432.74,183.75 432.073,180.084 431,176.5C 429.989,175.663 428.822,175.33 427.5,175.5C 427.766,171.395 427.266,167.395 426,163.5C 423.764,160.957 422.264,157.957 421.5,154.5C 420.675,153.614 419.675,153.281 418.5,153.5C 418.799,151.396 418.466,149.396 417.5,147.5C 414.279,145.387 412.945,142.387 413.5,138.5C 412.167,138.5 410.833,138.5 409.5,138.5C 409.785,136.712 409.452,135.045 408.5,133.5C 404.993,131.539 403.66,128.539 404.5,124.5C 403.167,124.5 401.833,124.5 400.5,124.5C 401.167,120.5 399.5,118.833 395.5,119.5C 395.5,117.833 395.5,116.167 395.5,114.5C 394.167,114.5 392.833,114.5 391.5,114.5C 391.838,110.849 390.172,109.183 386.5,109.5C 386.5,108.167 386.5,106.833 386.5,105.5C 385.167,105.5 383.833,105.5 382.5,105.5C 382.5,103.833 382.5,102.167 382.5,100.5C 380.833,100.5 379.167,100.5 377.5,100.5C 378.244,97.0504 376.91,95.3838 373.5,95.5C 373.616,92.0897 371.95,90.7564 368.5,91.5C 369.167,87.5 367.5,85.8333 363.5,86.5C 363.67,85.1779 363.337,84.0113 362.5,83C 360.26,82.023 357.927,81.523 355.5,81.5C 355.567,78.234 353.901,76.734 350.5,77C 349.663,75.9887 349.33,74.8221 349.5,73.5C 346.873,72.9084 344.206,72.5751 341.5,72.5C 341.771,70.6203 341.104,69.287 339.5,68.5 Z M 138.5,72.5 C 137.962,74.1172 137.629,75.7839 137.5,77.5C 136.127,77.3433 134.793,77.51 133.5,78C 131.197,80.1335 128.531,81.6335 125.5,82.5C 124.571,83.6888 124.238,85.0222 124.5,86.5C 120.5,85.8333 118.833,87.5 119.5,91.5C 117.345,91.372 115.345,91.872 113.5,93C 110.572,95.09 108.239,97.59 106.5,100.5C 103.5,100.833 101.833,102.5 101.5,105.5C 98.5159,105.787 97.1826,107.454 97.5,110.5C 96.1779,110.33 95.0113,110.663 94,111.5C 92.3922,114.772 90.3922,117.772 88,120.5C 87.51,121.793 87.3433,123.127 87.5,124.5C 86.1667,124.5 84.8333,124.5 83.5,124.5C 83.762,125.978 83.4287,127.311 82.5,128.5C 80.2796,131.602 77.6129,134.269 74.5,136.5C 74.5,133.833 74.5,131.167 74.5,128.5C 75.8333,128.5 77.1667,128.5 78.5,128.5C 78.5,126.833 78.5,125.167 78.5,123.5C 80.1667,123.5 81.8333,123.5 83.5,123.5C 84.8333,120.5 86.1667,117.5 87.5,114.5C 88.8221,114.67 89.9887,114.337 91,113.5C 91.9431,110.891 93.6097,108.891 96,107.5C 96.4828,106.552 96.6495,105.552 96.5,104.5C 99.3289,104.675 100.996,103.342 101.5,100.5C 104.351,99.9879 105.684,98.3213 105.5,95.5C 109.151,95.8383 110.817,94.1716 110.5,90.5C 111.833,90.5 113.167,90.5 114.5,90.5C 114.5,89.1667 114.5,87.8333 114.5,86.5C 118.5,87.1667 120.167,85.5 119.5,81.5C 123.585,82.3412 126.585,81.0078 128.5,77.5C 129.689,76.5713 131.022,76.238 132.5,76.5C 132.759,72.9319 134.759,71.5985 138.5,72.5 Z M 230.5,109.5 C 239.192,109.169 247.859,109.502 256.5,110.5C 258.109,112.94 260.443,114.107 263.5,114C 269.833,114.333 276.167,114.667 282.5,115C 283.337,116.011 283.67,117.178 283.5,118.5C 287.785,119.295 292.119,119.628 296.5,119.5C 296.5,120.833 296.5,122.167 296.5,123.5C 299.5,123.5 302.5,123.5 305.5,123.5C 305.286,125.144 305.62,126.644 306.5,128C 309.146,128.497 311.813,128.664 314.5,128.5C 314.286,130.144 314.62,131.644 315.5,133C 318.187,133.341 320.187,134.674 321.5,137C 323.813,137.662 326.146,138.162 328.5,138.5C 328.5,139.833 328.5,141.167 328.5,142.5C 329.833,142.5 331.167,142.5 332.5,142.5C 331.833,146.5 333.5,148.167 337.5,147.5C 337.238,148.978 337.571,150.311 338.5,151.5C 340.432,152.145 341.599,153.479 342,155.5C 343.356,156.38 344.856,156.714 346.5,156.5C 346.5,158.167 346.5,159.833 346.5,161.5C 347.833,161.5 349.167,161.5 350.5,161.5C 349.833,165.5 351.5,167.167 355.5,166.5C 355.337,168.857 355.503,171.19 356,173.5C 358.364,175.059 359.864,177.225 360.5,180C 361.793,180.49 363.127,180.657 364.5,180.5C 364.5,183.5 364.5,186.5 364.5,189.5C 365.833,189.5 367.167,189.5 368.5,189.5C 368.336,192.187 368.503,194.854 369,197.5C 370.085,198.293 371.252,198.96 372.5,199.5C 373.492,203.783 373.826,208.116 373.5,212.5C 374.822,212.33 375.989,212.663 377,213.5C 377.424,219.515 377.924,225.515 378.5,231.5C 379.833,231.5 381.167,231.5 382.5,231.5C 382.5,245.833 382.5,260.167 382.5,274.5C 381.178,274.33 380.011,274.663 379,275.5C 377.696,281.423 377.196,287.423 377.5,293.5C 376.178,293.33 375.011,293.663 374,294.5C 373.501,298.821 373.334,303.154 373.5,307.5C 371.856,307.286 370.356,307.62 369,308.5C 368.503,311.146 368.336,313.813 368.5,316.5C 364.932,316.759 363.599,318.759 364.5,322.5C 361.95,322.561 360.45,323.894 360,326.5C 359.317,333.861 359.483,341.195 360.5,348.5C 361.822,348.33 362.989,348.663 364,349.5C 364.333,353.833 364.667,358.167 365,362.5C 366.011,363.337 367.178,363.67 368.5,363.5C 368.334,369.176 368.501,374.843 369,380.5C 370.11,382.037 371.61,382.703 373.5,382.5C 373.5,384.167 373.5,385.833 373.5,387.5C 368.884,388.557 365.551,387.057 363.5,383C 359.167,382.667 354.833,382.333 350.5,382C 349.726,379.56 348.06,378.227 345.5,378C 341.129,377.828 336.796,377.328 332.5,376.5C 332.167,375.833 331.833,375.167 331.5,374.5C 325.872,373.505 320.206,373.171 314.5,373.5C 314.5,374.833 314.5,376.167 314.5,377.5C 311.751,377.274 309.084,377.607 306.5,378.5C 305.571,379.689 305.238,381.022 305.5,382.5C 302.813,382.336 300.146,382.503 297.5,383C 296.62,384.356 296.286,385.856 296.5,387.5C 292.167,387.5 287.833,387.5 283.5,387.5C 283.67,388.822 283.337,389.989 282.5,391C 275.792,391.289 269.125,391.955 262.5,393C 261.643,393.689 260.977,394.522 260.5,395.5C 248.833,396.833 237.167,396.833 225.5,395.5C 223.657,393.395 221.324,392.228 218.5,392C 213.845,391.501 209.179,391.334 204.5,391.5C 204.64,389.876 203.973,388.71 202.5,388C 198.848,387.501 195.182,387.335 191.5,387.5C 191.714,385.856 191.38,384.356 190.5,383C 187.854,382.503 185.187,382.336 182.5,382.5C 182.67,381.178 182.337,380.011 181.5,379C 178.937,377.921 176.271,377.421 173.5,377.5C 173.5,376.167 173.5,374.833 173.5,373.5C 170.482,373.296 167.482,372.963 164.5,372.5C 164.5,371.167 164.5,369.833 164.5,368.5C 163.167,368.5 161.833,368.5 160.5,368.5C 161.167,364.5 159.5,362.833 155.5,363.5C 155.5,362.167 155.5,360.833 155.5,359.5C 151.926,360.092 149.926,358.592 149.5,355C 148.552,354.517 147.552,354.351 146.5,354.5C 146.707,351.255 145.207,349.255 142,348.5C 141.517,347.552 141.351,346.552 141.5,345.5C 138.09,345.616 136.756,343.95 137.5,340.5C 136.167,340.5 134.833,340.5 133.5,340.5C 133.657,339.127 133.49,337.793 133,336.5C 129.192,334.777 127.525,331.777 128,327.5C 126.989,326.663 125.822,326.33 124.5,326.5C 124.322,323.784 123.822,321.117 123,318.5C 121.989,317.663 120.822,317.33 119.5,317.5C 119.664,314.813 119.497,312.146 119,309.5C 118.1,308.23 116.934,307.23 115.5,306.5C 115.348,302.163 113.848,298.497 111,295.5C 110.829,290.136 110.329,284.802 109.5,279.5C 108.186,278.687 107.019,277.687 106,276.5C 105.333,261.5 105.333,246.5 106,231.5C 108.44,230.726 109.773,229.06 110,226.5C 109.684,220.274 111.018,214.607 114,209.5C 114.333,206.5 114.667,203.5 115,200.5C 115.991,199.061 117.324,198.061 119,197.5C 119.497,194.854 119.664,192.187 119.5,189.5C 120.822,189.67 121.989,189.337 123,188.5C 123.5,186.5 124,184.5 124.5,182.5C 124.833,180.833 125.833,179.833 127.5,179.5C 128.484,176.572 128.817,173.572 128.5,170.5C 129.873,170.657 131.207,170.49 132.5,170C 133.141,167.87 134.474,166.37 136.5,165.5C 137.429,164.311 137.762,162.978 137.5,161.5C 140.321,161.684 141.988,160.351 142.5,157.5C 145.824,156.841 147.157,154.841 146.5,151.5C 147.833,151.5 149.167,151.5 150.5,151.5C 150.5,150.167 150.5,148.833 150.5,147.5C 154.5,148.167 156.167,146.5 155.5,142.5C 159.074,143.092 161.074,141.592 161.5,138C 162.448,137.517 163.448,137.351 164.5,137.5C 164.5,136.167 164.5,134.833 164.5,133.5C 167.249,133.726 169.916,133.393 172.5,132.5C 173.429,131.311 173.762,129.978 173.5,128.5C 176.32,128.752 178.986,128.252 181.5,127C 182.337,125.989 182.67,124.822 182.5,123.5C 185.187,123.664 187.854,123.497 190.5,123C 191.337,121.989 191.67,120.822 191.5,119.5C 195.215,119.68 198.882,119.346 202.5,118.5C 204.167,118.167 205.167,117.167 205.5,115.5C 212.869,114.851 220.202,114.017 227.5,113C 228.71,111.961 229.71,110.794 230.5,109.5 Z M 74.5,136.5 C 75.0557,140.193 73.7224,142.86 70.5,144.5C 69.8108,146.444 69.3108,148.444 69,150.5C 66.5172,154.598 63.8506,158.598 61,162.5C 60.5034,164.81 60.3367,167.143 60.5,169.5C 59.1667,169.5 58.5,170.167 58.5,171.5C 56.7629,174.008 55.9296,177.008 56,180.5C 53.5603,181.274 52.227,182.94 52,185.5C 51.6667,189.5 51.3333,193.5 51,197.5C 50.3109,198.357 49.4776,199.023 48.5,199.5C 47.5033,206.134 47.17,212.8 47.5,219.5C 44.4469,220.28 42.7803,222.28 42.5,225.5C 42.3334,244.17 42.5001,262.836 43,281.5C 43.2784,282.416 43.7784,283.082 44.5,283.5C 44.9731,284.906 45.9731,285.573 47.5,285.5C 47.5,292.5 47.5,299.5 47.5,306.5C 48.8221,306.33 49.9887,306.663 51,307.5C 51.499,311.821 51.6657,316.154 51.5,320.5C 51.7903,323.127 53.1236,324.794 55.5,325.5C 56.3195,328.305 56.8195,331.305 57,334.5C 58.0113,335.337 59.1779,335.67 60.5,335.5C 60.3359,338.187 60.5026,340.854 61,343.5C 62.3561,344.38 63.8561,344.714 65.5,344.5C 65.1826,347.572 65.5159,350.572 66.5,353.5C 67.1667,353.833 67.8333,354.167 68.5,354.5C 69.3142,356.766 69.8142,359.1 70,361.5C 71.049,363.107 72.549,363.773 74.5,363.5C 73.8895,366.961 75.0561,369.628 78,371.5C 77.8149,375.511 79.6482,377.511 83.5,377.5C 82.7564,380.95 84.0897,382.616 87.5,382.5C 87.3838,385.91 89.0504,387.244 92.5,386.5C 92.5079,389.545 92.8413,392.545 93.5,395.5C 96.5406,395.406 98.2072,396.906 98.5,400C 99.448,400.483 100.448,400.649 101.5,400.5C 101.5,403.833 103.167,405.5 106.5,405.5C 106.351,406.552 106.517,407.552 107,408.5C 109.202,409.402 111.368,410.402 113.5,411.5C 114.853,412.524 115.52,413.857 115.5,415.5C 116.833,415.5 118.167,415.5 119.5,415.5C 119.5,416.833 119.5,418.167 119.5,419.5C 121.167,419.5 122.833,419.5 124.5,419.5C 124.5,421.167 124.5,422.833 124.5,424.5C 126.924,424.192 129.257,424.526 131.5,425.5C 132.853,426.524 133.52,427.857 133.5,429.5C 134.833,429.5 136.167,429.5 137.5,429.5C 137.33,430.822 137.663,431.989 138.5,433C 141.146,433.497 143.813,433.664 146.5,433.5C 146.199,437.619 148.199,439.619 152.5,439.5C 153.605,440.892 154.939,442.059 156.5,443C 159.226,443.182 161.893,443.682 164.5,444.5C 166.87,447.917 170.203,449.25 174.5,448.5C 174.33,449.822 174.663,450.989 175.5,452C 171.848,452.499 168.182,452.665 164.5,452.5C 164.5,451.167 164.5,449.833 164.5,448.5C 161.5,448.5 158.5,448.5 155.5,448.5C 155.5,446.833 155.5,445.167 155.5,443.5C 152.5,443.5 149.5,443.5 146.5,443.5C 146.714,441.856 146.38,440.356 145.5,439C 142.854,438.503 140.187,438.336 137.5,438.5C 137.5,437.167 137.5,435.833 137.5,434.5C 133.849,434.838 132.183,433.172 132.5,429.5C 129.833,429.5 127.167,429.5 124.5,429.5C 124.817,425.828 123.151,424.162 119.5,424.5C 119.5,423.167 119.5,421.833 119.5,420.5C 115.828,420.817 114.162,419.151 114.5,415.5C 113.167,415.5 111.833,415.5 110.5,415.5C 110.5,412.167 108.833,410.5 105.5,410.5C 105.78,407.612 104.447,406.112 101.5,406C 101.207,402.906 99.5406,401.406 96.5,401.5C 96.762,400.022 96.4287,398.689 95.5,397.5C 93.1667,395.5 90.8333,393.5 88.5,391.5C 87.5713,390.311 87.238,388.978 87.5,387.5C 86.1667,387.5 84.8333,387.5 83.5,387.5C 84.1667,383.5 82.5,381.833 78.5,382.5C 78.6602,380.801 78.4935,379.134 78,377.5C 75.6838,375.388 74.3505,372.722 74,369.5C 72.6439,368.62 71.1439,368.286 69.5,368.5C 69.6621,366.473 69.4955,364.473 69,362.5C 66.757,358.514 64.0903,354.847 61,351.5C 57.9652,346.04 55.9652,340.04 55,333.5C 52.1044,330.546 50.771,326.879 51,322.5C 49.9887,321.663 48.8221,321.33 47.5,321.5C 47.4599,316.807 47.1266,312.141 46.5,307.5C 45.1667,307.5 43.8333,307.5 42.5,307.5C 42.6662,301.158 42.4995,294.825 42,288.5C 41.6174,287.944 41.1174,287.611 40.5,287.5C 40.5,286.167 39.8333,285.5 38.5,285.5C 37.4818,267.178 37.3151,248.845 38,230.5C 38.1786,227.447 38.6786,224.447 39.5,221.5C 40.9705,220.619 41.8038,219.286 42,217.5C 42.4995,211.175 42.6662,204.842 42.5,198.5C 43.8333,198.5 45.1667,198.5 46.5,198.5C 47.1266,193.859 47.4599,189.193 47.5,184.5C 48.8333,184.5 50.1667,184.5 51.5,184.5C 51.5,179.833 51.5,175.167 51.5,170.5C 53.1439,170.714 54.6439,170.38 56,169.5C 56.4974,166.854 56.6641,164.187 56.5,161.5C 57.8333,161.5 59.1667,161.5 60.5,161.5C 60.5,158.5 60.5,155.5 60.5,152.5C 62.3904,152.703 63.8904,152.037 65,150.5C 65.444,147.389 66.7773,144.723 69,142.5C 69.4935,140.866 69.6602,139.199 69.5,137.5C 71.2915,137.634 72.9582,137.301 74.5,136.5 Z M 441.5,211.5 C 442.708,212.234 444.041,212.567 445.5,212.5C 446.833,239.5 446.833,266.5 445.5,293.5C 444.178,293.33 443.011,293.663 442,294.5C 441.5,266.835 441.333,239.169 441.5,211.5 Z M 436.5,316.5 C 436.334,311.489 436.501,306.489 437,301.5C 439.324,300.193 440.657,298.193 441,295.5C 441.499,301.157 441.666,306.824 441.5,312.5C 440.167,312.5 438.833,312.5 437.5,312.5C 437.768,314.099 437.434,315.432 436.5,316.5 Z M 435.5,316.5 C 435.833,316.5 436.167,316.5 436.5,316.5C 436.5,319.833 436.5,323.167 436.5,326.5C 435.041,326.433 433.708,326.766 432.5,327.5C 432.5,324.833 432.5,322.167 432.5,319.5C 434.5,319.5 435.5,318.5 435.5,316.5 Z M 432.5,327.5 C 433.658,333.161 432.158,337.827 428,341.5C 427.503,344.146 427.336,346.813 427.5,349.5C 426.178,349.33 425.011,349.663 424,350.5C 424.475,354.777 422.808,357.777 419,359.5C 418.506,361.134 418.34,362.801 418.5,364.5C 416.876,364.36 415.71,365.027 415,366.5C 414.503,368.81 414.337,371.143 414.5,373.5C 410.5,372.833 408.833,374.5 409.5,378.5C 407.876,378.36 406.71,379.027 406,380.5C 405.503,382.81 405.337,385.143 405.5,387.5C 403.833,387.5 402.167,387.5 400.5,387.5C 400.5,388.833 400.5,390.167 400.5,391.5C 397.09,391.384 395.756,393.05 396.5,396.5C 392.5,395.833 390.833,397.5 391.5,401.5C 390.167,401.5 388.833,401.5 387.5,401.5C 387.5,402.833 387.5,404.167 387.5,405.5C 383.828,405.183 382.162,406.849 382.5,410.5C 378.849,410.162 377.183,411.828 377.5,415.5C 376.167,415.5 374.833,415.5 373.5,415.5C 373.5,416.833 373.5,418.167 373.5,419.5C 369.828,419.183 368.162,420.849 368.5,424.5C 364.129,423.534 361.129,425.034 359.5,429C 358.207,429.49 356.873,429.657 355.5,429.5C 355.5,431.167 355.5,432.833 355.5,434.5C 352.813,434.336 350.146,434.503 347.5,435C 346.663,436.011 346.33,437.178 346.5,438.5C 342.378,437.894 339.378,439.394 337.5,443C 333.651,442.924 330.651,444.424 328.5,447.5C 325.893,448.318 323.226,448.818 320.5,449C 319.663,450.011 319.33,451.178 319.5,452.5C 316.813,452.664 314.146,452.497 311.5,452C 314.397,448.867 318.063,447.2 322.5,447C 323.337,445.989 323.67,444.822 323.5,443.5C 326.187,443.664 328.854,443.497 331.5,443C 332.38,441.644 332.714,440.144 332.5,438.5C 335.187,438.664 337.854,438.497 340.5,438C 341.38,436.644 341.714,435.144 341.5,433.5C 344.247,433.813 346.914,433.48 349.5,432.5C 350.539,430.469 352.205,429.136 354.5,428.5C 355.246,427.264 355.579,425.93 355.5,424.5C 357.92,424.708 360.253,424.374 362.5,423.5C 363.429,422.311 363.762,420.978 363.5,419.5C 365.167,419.5 366.833,419.5 368.5,419.5C 368.5,418.167 368.5,416.833 368.5,415.5C 372.172,415.817 373.838,414.151 373.5,410.5C 374.833,410.5 376.167,410.5 377.5,410.5C 377.5,408.833 377.5,407.167 377.5,405.5C 379.167,405.5 380.833,405.5 382.5,405.5C 383.833,402.5 385.167,399.5 386.5,396.5C 388.167,396.5 389.833,396.5 391.5,396.5C 391.5,394.833 391.5,393.167 391.5,391.5C 392.833,391.5 394.167,391.5 395.5,391.5C 395.5,389.833 395.5,388.167 395.5,386.5C 397.144,386.714 398.644,386.38 400,385.5C 400.401,383.479 401.568,382.145 403.5,381.5C 404.295,379.505 404.961,377.505 405.5,375.5C 406.167,374.5 406.833,373.5 407.5,372.5C 408.925,370.706 410.592,369.039 412.5,367.5C 414.724,361.517 417.891,356.184 422,351.5C 422.341,347.157 424.007,343.49 427,340.5C 427.182,337.774 427.682,335.107 428.5,332.5C 430.168,330.985 431.501,329.318 432.5,327.5 Z M 176.5,453.5 C 180.019,452.192 183.685,452.192 187.5,453.5C 187.968,455.134 188.968,456.3 190.5,457C 186.514,457.499 182.514,457.666 178.5,457.5C 178.843,455.517 178.176,454.183 176.5,453.5 Z M 300.5,452.5 C 303.85,452.335 307.183,452.502 310.5,453C 307.94,453.227 306.274,454.56 305.5,457C 302.5,457.667 299.5,457.667 296.5,457C 299.072,456.568 300.406,455.068 300.5,452.5 Z M 214.5,462.5 C 206.833,462.5 199.167,462.5 191.5,462.5C 191.5,460.833 191.5,459.167 191.5,457.5C 197.176,457.334 202.843,457.501 208.5,458C 210.035,460.253 212.035,461.753 214.5,462.5 Z M 272.5,462.5 C 273.919,461.549 275.585,461.216 277.5,461.5C 277.5,460.167 277.5,458.833 277.5,457.5C 284.577,457.112 289.577,457.445 292.5,458.5C 292.5,459.833 292.5,461.167 292.5,462.5C 285.833,462.5 279.167,462.5 272.5,462.5 Z M 214.5,462.5 C 233.833,462.5 253.167,462.5 272.5,462.5C 271.365,463.474 270.365,464.641 269.5,466C 251.17,466.5 232.836,466.667 214.5,466.5C 214.5,465.167 214.5,463.833 214.5,462.5 Z"/></g>
<g><path style="opacity:0.005" fill="#dcfb02" d="M 256.5,39.5 C 258.924,39.1924 261.257,39.5258 263.5,40.5C 264.612,41.2652 265.279,42.2652 265.5,43.5C 261.584,44.0391 258.584,42.7058 256.5,39.5 Z"/></g>
<g><path style="opacity:0.005" fill="#fffe1c" d="M 182.5,49.5 C 182.64,51.1238 181.973,52.2904 180.5,53C 181.094,53.4643 181.761,53.631 182.5,53.5C 181.192,54.2323 179.858,55.0656 178.5,56C 179.833,56.6667 179.833,57.3333 178.5,58C 177.207,58.49 175.873,58.6567 174.5,58.5C 174.594,55.9315 175.928,54.4315 178.5,54C 178.272,53.6012 177.938,53.4346 177.5,53.5C 178.782,51.8205 180.449,50.4871 182.5,49.5 Z"/></g>
<g><path style="opacity:0.004" fill="#fe0000" d="M 359.5,54.5 C 361.5,55.1667 362.833,56.5 363.5,58.5C 361.5,57.8333 360.167,56.5 359.5,54.5 Z"/></g>
<g><path style="opacity:0.004" fill="#fe0000" d="M 309.5,55.5 C 310.833,56.1667 311.833,57.1667 312.5,58.5C 311.5,58.5 310.5,58.5 309.5,58.5C 309.5,57.5 309.5,56.5 309.5,55.5 Z"/></g>
<g><path style="opacity:0.004" fill="#fe0000" d="M 373.5,64.5 C 375.5,64.5 376.5,65.5 376.5,67.5C 375.167,66.8333 374.167,65.8333 373.5,64.5 Z"/></g>
<g><path style="opacity:0.012" fill="#ff94fe" d="M 106.5,100.5 C 106.5,102.167 106.5,103.833 106.5,105.5C 104.833,105.5 103.167,105.5 101.5,105.5C 101.833,102.5 103.5,100.833 106.5,100.5 Z"/></g>
<g><path style="opacity:0.004" fill="#ff2700" d="M 47.5,143.5 C 46.748,145.1 45.748,146.6 44.5,148C 43.9056,148.464 43.2389,148.631 42.5,148.5C 43.5,146.167 45.1667,144.5 47.5,143.5 Z"/></g>
<g><path style="opacity:0.004" fill="#fe0000" d="M 42.5,153.5 C 41.8333,154.833 40.8333,155.833 39.5,156.5C 39.5,154.5 40.5,153.5 42.5,153.5 Z"/></g>
<g><path style="opacity:0.004" fill="#000000" d="M 60.5,169.5 C 60.5,170.833 59.8333,171.5 58.5,171.5C 58.5,170.167 59.1667,169.5 60.5,169.5 Z"/></g>
<g><path style="opacity:0.004" fill="#000000" d="M 33.5,176.5 C 33.2624,178.404 32.2624,179.738 30.5,180.5C 30.7376,178.596 31.7376,177.262 33.5,176.5 Z"/></g>
<g><path style="opacity:0.008" fill="#706f0f" d="M 27.5,194.5 C 27.5,196.5 26.5,197.5 24.5,197.5C 25.1667,196.167 26.1667,195.167 27.5,194.5 Z"/></g>
<g><path style="opacity:0.008" fill="#ff82fc" d="M 47.5,219.5 C 46.8112,220.707 46.6446,222.041 47,223.5C 45.8904,225.037 44.3904,225.703 42.5,225.5C 42.7803,222.28 44.4469,220.28 47.5,219.5 Z"/></g>
<g><path style="opacity:0.716" fill="#f4b229" d="M 215.5,257.5 C 217.586,256.852 218.586,255.352 218.5,253C 218.167,252.167 217.833,251.333 217.5,250.5C 216.831,252.631 216.165,254.631 215.5,256.5C 214.634,250.422 214.801,244.422 216,238.5C 217.011,237.663 218.178,237.33 219.5,237.5C 219.5,235.833 219.5,234.167 219.5,232.5C 223.833,232.5 228.167,232.5 232.5,232.5C 232.617,230.516 231.95,228.85 230.5,227.5C 231.624,226.086 232.624,224.586 233.5,223C 240.608,222.076 247.608,222.409 254.5,224C 255.444,226.719 255.777,229.552 255.5,232.5C 258.5,232.5 261.5,232.5 264.5,232.5C 264.5,233.833 264.5,235.167 264.5,236.5C 265.833,236.5 267.167,236.5 268.5,236.5C 268.774,247.013 268.774,257.513 268.5,268C 266.481,269.688 264.814,271.688 263.5,274C 260.854,274.497 258.187,274.664 255.5,274.5C 255.199,282.428 251.033,285.428 243,283.5C 235.006,285.67 231.506,282.67 232.5,274.5C 228.818,274.665 225.152,274.499 221.5,274C 219.808,272.599 219.141,270.766 219.5,268.5C 218.178,268.67 217.011,268.337 216,267.5C 214.801,264.115 214.634,260.782 215.5,257.5 Z"/></g>
<g><path style="opacity:0.684" fill="#f3b12a" d="M 190.5,278.5 C 189.599,279.29 188.932,280.29 188.5,281.5C 188.389,282.117 188.056,282.617 187.5,283C 181.833,283.667 176.167,283.667 170.5,283C 169.556,280.281 169.223,277.448 169.5,274.5C 165.116,274.826 160.783,274.492 156.5,273.5C 156.021,271.111 154.688,269.444 152.5,268.5C 151.167,258.167 151.167,247.833 152.5,237.5C 154.773,236.625 155.773,234.958 155.5,232.5C 160.167,232.5 164.833,232.5 169.5,232.5C 169.617,230.516 168.95,228.85 167.5,227.5C 168.95,226.15 169.617,224.484 169.5,222.5C 175.176,222.334 180.843,222.501 186.5,223C 190.39,224.945 192.057,228.112 191.5,232.5C 200.632,231.144 205.298,234.977 205.5,244C 205.072,252.136 204.905,260.303 205,268.5C 203.167,270.333 201.333,272.167 199.5,274C 196.854,274.497 194.187,274.664 191.5,274.5C 191.768,276.099 191.434,277.432 190.5,278.5 Z"/></g>
<g><path style="opacity:0.654" fill="#f4b229" d="M 335.5,244.5 C 334.461,246.901 333.127,249.235 331.5,251.5C 331.624,252.107 331.957,252.44 332.5,252.5C 332.5,253.833 332.5,255.167 332.5,256.5C 333.09,258.097 334.09,259.431 335.5,260.5C 333.157,261.144 332.157,263.144 332.5,266.5C 332.808,268.924 332.474,271.257 331.5,273.5C 327.235,274.439 322.902,274.772 318.5,274.5C 318.777,277.448 318.444,280.281 317.5,283C 311.167,283.667 304.833,283.667 298.5,283C 296.686,280.519 296.02,277.685 296.5,274.5C 292.119,274.628 287.785,274.295 283.5,273.5C 282.39,260.533 282.223,247.533 283,234.5C 287.178,232.601 291.678,231.935 296.5,232.5C 294.976,223.319 298.81,219.985 308,222.5C 317.247,219.915 320.747,223.248 318.5,232.5C 323.167,232.5 327.833,232.5 332.5,232.5C 331.873,237.071 332.873,241.071 335.5,244.5 Z"/></g>
<g><path style="opacity:0.004" fill="#ffddfa" d="M 335.5,244.5 C 336.799,247.92 335.799,250.587 332.5,252.5C 331.957,252.44 331.624,252.107 331.5,251.5C 333.127,249.235 334.461,246.901 335.5,244.5 Z"/></g>
<g><path style="opacity:0.004" fill="#feff00" d="M 215.5,257.5 C 215.5,257.167 215.5,256.833 215.5,256.5C 216.165,254.631 216.831,252.631 217.5,250.5C 217.833,251.333 218.167,252.167 218.5,253C 218.586,255.352 217.586,256.852 215.5,257.5 Z"/></g>
<g><path style="opacity:0.005" fill="#fff1fd" d="M 332.5,256.5 C 336.143,257.382 337.31,259.716 336,263.5C 335.241,265.063 334.074,266.063 332.5,266.5C 332.157,263.144 333.157,261.144 335.5,260.5C 334.09,259.431 333.09,258.097 332.5,256.5 Z"/></g>
<g><path style="opacity:0.004" fill="#fe0000" d="M 190.5,278.5 C 190.715,280.179 190.048,281.179 188.5,281.5C 188.932,280.29 189.599,279.29 190.5,278.5 Z"/></g>
<g><path style="opacity:0.004" fill="#fe0000" d="M 44.5,283.5 C 46.1788,283.285 47.1788,283.952 47.5,285.5C 45.9731,285.573 44.9731,284.906 44.5,283.5 Z"/></g>
<g><path style="opacity:0.004" fill="#ff40ff" d="M 38.5,285.5 C 39.8333,285.5 40.5,286.167 40.5,287.5C 39.1751,286.047 38.3418,286.381 38,288.5C 37.2599,287.251 37.4265,286.251 38.5,285.5 Z"/></g>
<g><path style="opacity:0.004" fill="#fe0000" d="M 435.5,316.5 C 435.5,318.5 434.5,319.5 432.5,319.5C 433.167,318.167 434.167,317.167 435.5,316.5 Z"/></g>
<g><path style="opacity:0.008" fill="#ff8e17" d="M 51.5,320.5 C 55.935,319.922 57.2683,321.589 55.5,325.5C 53.1236,324.794 51.7903,323.127 51.5,320.5 Z"/></g>
<g><path style="opacity:0.004" fill="#fefffe" d="M 44.5,358.5 C 45.5,358.5 46.5,358.5 47.5,358.5C 47.5,359.5 47.5,360.5 47.5,361.5C 46.1667,360.833 45.1667,359.833 44.5,358.5 Z"/></g>
<g><path style="opacity:0.004" fill="#fe0000" d="M 407.5,372.5 C 406.833,373.5 406.167,374.5 405.5,375.5C 404.596,374.791 404.263,373.791 404.5,372.5C 405.5,372.5 406.5,372.5 407.5,372.5 Z"/></g>
<g><path style="opacity:0.004" fill="#fe0000" d="M 116.5,443.5 C 117.833,444.167 118.833,445.167 119.5,446.5C 117.5,446.5 116.5,445.5 116.5,443.5 Z"/></g>
<g><path style="opacity:0.004" fill="#000000" d="M 281.5,480.5 C 281.167,482.833 279.833,484.167 277.5,484.5C 278.5,482.833 279.833,481.5 281.5,480.5 Z"/></g>
</svg>
